<svg width="26" height="26" viewBox="0 0 26 26" fill="none" xmlns="http://www.w3.org/2000/svg">
<path d="M21.7113 9.84099L13.2634 3.29887C13.1477 3.20946 13.0054 3.1615 12.8593 3.16268C12.7131 3.16386 12.5716 3.21411 12.4574 3.30537L4.2796 9.84723C4.20344 9.90833 4.14197 9.98574 4.09972 10.0738C4.05746 10.1618 4.0355 10.2582 4.03546 10.3558V22.1858C4.03543 22.2713 4.05225 22.356 4.08497 22.4351C4.11769 22.5141 4.16566 22.5859 4.22615 22.6464C4.28663 22.7069 4.35844 22.7549 4.43748 22.7876C4.51651 22.8203 4.60122 22.8371 4.68676 22.8371H9.54798C9.7207 22.837 9.88632 22.7684 10.0084 22.6463C10.1306 22.5241 10.1992 22.3585 10.1993 22.1858V14.9425H15.7997V22.1858C15.7997 22.3585 15.8683 22.5242 15.9904 22.6463C16.1126 22.7685 16.2782 22.8371 16.451 22.8371H21.313C21.4857 22.837 21.6513 22.7684 21.7734 22.6463C21.8956 22.5241 21.9642 22.3585 21.9643 22.1858V10.3558C21.9643 10.2563 21.9416 10.1582 21.8977 10.069C21.8538 9.9797 21.7901 9.90171 21.7113 9.84099Z" fill="#FF7A00" fill-opacity="0.74"/>
</svg>
